Coordinates
version=1
nRows=11
nColumns=40
inDegrees=yes

Units are S.I. units (second, meters, Newtons, ...)
If the header above contains a line with 'inDegrees', this indicates whether rotational values are in degrees (yes) or radians (no).

endheader
time	pelvis_tilt	pelvis_list	pelvis_rotation	pelvis_tx	pelvis_ty	pelvis_tz	hip_flexion_r	hip_adduction_r	hip_rotation_r	knee_angle_r	knee_angle_r_beta	ankle_angle_r	subtalar_angle_r	mtp_angle_r	hip_flexion_l	hip_adduction_l	hip_rotation_l	knee_angle_l	knee_angle_l_beta	ankle_angle_l	subtalar_angle_l	mtp_angle_l	lumbar_extension	lumbar_bending	lumbar_rotation	arm_flex_r	arm_add_r	arm_rot_r	elbow_flex_r	pro_sup_r	wrist_flex_r	wrist_dev_r	arm_flex_l	arm_add_l	arm_rot_l	elbow_flex_l	pro_sup_l	wrist_flex_l	wrist_dev_l
      7.52500000	     24.01802204	      6.58808895	   -175.06102407	      0.34534464	      0.69379200	     -0.94009579	     54.19995020	    -40.60337680	    -20.17682695	     35.64136291	      0.62205913	    -11.66672682	      0.00000000	      0.00000000	     68.22389878	    -41.04456162	     -3.34128358	     32.81571632	      0.57274230	    -16.10451859	      0.00000000	      0.00000000	    -28.89377674	      2.41057209	     -1.08485589	     45.65994097	    -11.14060857	     72.38224381	     12.14867306	     79.76902623	      0.00000000	      0.00000000	     46.83284773	    -16.58065470	     72.92288525	     14.31959926	     68.14352079	      0.00000000	      0.00000000
      7.53000000	     23.74444259	      6.30865106	   -175.19150176	      0.34461929	      0.69512228	     -0.94030183	     53.90780610	    -40.51294360	    -19.77709518	     35.31648591	      0.61638896	    -11.62712187	      0.00000000	      0.00000000	     67.35335816	    -41.11163033	     -4.08799231	     32.61299643	      0.56920417	    -15.95459572	      0.00000000	      0.00000000	    -29.05952360	      2.05458564	     -1.09982934	     45.85028342	    -11.08105334	     73.82103360	     11.96242605	     81.66091567	      0.00000000	      0.00000000	     47.02668997	    -16.84416969	     74.25647612	     14.54685560	     69.32486262	      0.00000000	      0.00000000
      7.53500000	     23.84470822	      6.32174189	   -175.15884728	      0.34425573	      0.69562102	     -0.94027256	     53.82213492	    -40.45116297	    -19.82406065	     35.11218434	      0.61282322	    -11.65231555	      0.00000000	      0.00000000	     67.26477524	    -41.02090454	     -4.12040520	     32.36777215	      0.56492420	    -15.99185559	      0.00000000	      0.00000000	    -28.74814894	      2.05610865	     -1.08091557	     45.71970717	    -11.23050820	     74.12283324	     12.12669038	     81.77280497	      0.00000000	      0.00000000	     46.99469745	    -16.82416603	     74.70540565	     14.57633563	     69.89250052	      0.00000000	      0.00000000
      7.54000000	     23.70817701	      6.28430956	   -175.11258451	      0.34362061	      0.69662011	     -0.94018284	     53.43664453	    -40.42363591	    -19.96619167	     34.85380496	      0.60831365	    -11.70919499	      0.00000000	      0.00000000	     66.88951033	    -40.98359451	     -4.34697373	     32.20373628	      0.56206123	    -16.05920116	      0.00000000	      0.00000000	    -28.72899932	      2.03545376	     -1.14635340	     45.57947491	    -11.16585765	     73.95917094	     12.03650348	     81.56950404	      0.00000000	      0.00000000	     46.73332422	    -16.84897788	     74.43895871	     14.52537280	     69.71854531	      0.00000000	      0.00000000
      7.54500000	     23.75881199	      6.26735928	   -175.06936675	      0.34314362	      0.69722972	     -0.94015458	     53.32610007	    -40.38118524	    -19.95978781	     34.66148214	      0.60495699	    -11.75148558	      0.00000000	      0.00000000	     66.72467408	    -40.90268062	     -4.43402439	     31.99120492	      0.55835186	    -16.09832199	      0.00000000	      0.00000000	    -28.47294178	      2.01982914	     -1.14155369	     45.39850369	    -11.23989437	     74.01573621	     12.07689740	     81.58964728	      0.00000000	      0.00000000	     46.67270260	    -16.81329829	     74.44724884	     14.61226683	     69.84930186	      0.00000000	      0.00000000
      7.55000000	     23.85701880	      6.23025908	   -175.03577630	      0.34271993	      0.69780320	     -0.94015914	     53.26267810	    -40.35600652	    -19.94669943	     34.45423875	      0.60133991	    -11.85578133	      0.00000000	      0.00000000	     66.57830213	    -40.80439666	     -4.54028977	     31.75523381	      0.55423338	    -16.19913238	      0.00000000	      0.00000000	    -28.17829337	      1.96763379	     -1.20349576	     45.23918892	    -11.27344535	     74.03809777	     12.13678588	     81.68201510	      0.00000000	      0.00000000	     46.45626096	    -16.81344922	     74.56274962	     14.52549800	     70.04023153	      0.00000000	      0.00000000
      7.55500000	     23.83718029	      6.52153686	   -174.71291687	      0.34227996	      0.69858079	     -0.93963719	     52.65709306	    -40.36689325	    -20.70410002	     34.24054367	      0.59761022	    -11.97827713	      0.00000000	      0.00000000	     66.73418506	    -40.56464317	     -3.97039909	     31.49259172	      0.54964942	    -16.52991108	      0.00000000	      0.00000000	    -27.97655378	      2.41829485	     -1.29097402	     44.69631362	    -11.02032105	     71.71044482	     11.75400728	     78.52675888	      0.00000000	      0.00000000	     46.06411655	    -16.22267361	     72.78110305	     13.89853531	     68.05090575	      0.00000000	      0.00000000
      7.56000000	     23.79724167	      6.56806464	   -174.60137489	      0.34165734	      0.69947463	     -0.93956735	     52.23532561	    -40.30194539	    -20.97249376	     33.89847327	      0.59163997	    -11.91139047	      0.00000000	      0.00000000	     66.47689641	    -40.45487254	     -3.97195705	     31.17290074	      0.54406976	    -16.51612905	      0.00000000	      0.00000000	    -27.81737963	      2.49803728	     -1.36584368	     44.34498698	    -10.81323313	     70.46922183	     11.51044476	     77.23639824	      0.00000000	      0.00000000	     45.76371315	    -15.99734483	     71.85070568	     13.66674816	     66.92721810	      0.00000000	      0.00000000
      7.56500000	     23.91447090	      6.10051155	   -174.85274241	      0.34109252	      0.70007775	     -0.94016529	     52.75334241	    -40.34622326	    -20.10763970	     33.84741821	      0.59074889	    -12.03087533	      0.00000000	      0.00000000	     65.81171308	    -40.46871064	     -4.95426473	     30.96012858	      0.54035618	    -16.44440300	      0.00000000	      0.00000000	    -27.53557107	      1.84673502	     -1.40494489	     44.68868143	    -11.22141492	     73.76644966	     12.05440558	     81.34601052	      0.00000000	      0.00000000	     46.07306747	    -16.85963468	     74.64840865	     14.73244688	     69.34634368	      0.00000000	      0.00000000
      7.57000000	     24.04733668	      6.04601916	   -174.78905550	      0.34066514	      0.70060726	     -0.94013896	     52.73341323	    -40.35412066	    -20.03985117	     33.66201268	      0.58751295	    -12.10247314	      0.00000000	      0.00000000	     65.70689171	    -40.31736918	     -5.03539132	     30.72956811	      0.53633214	    -16.59402153	      0.00000000	      0.00000000	    -27.19635473	      1.80023099	     -1.49523490	     44.50183931	    -11.31416935	     73.75365477	     12.21775846	     81.63713624	      0.00000000	      0.00000000	     45.89585201	    -16.79832020	     74.47539774	     14.59768102	     70.15636502	      0.00000000	      0.00000000
      7.57500000	     23.96383515	      5.99762178	   -174.75882651	      0.33992778	      0.70156982	     -0.94025539	     52.43860224	    -40.31483372	    -20.13839185	     33.44469278	      0.58372001	    -12.09245239	      0.00000000	      0.00000000	     65.28319770	    -40.26219561	     -5.23246631	     30.41699123	      0.53087665	    -16.62464449	      0.00000000	      0.00000000	    -27.08944100	      1.73565670	     -1.53871992	     44.30788013	    -11.22862211	     73.31948777	     12.11516989	     81.81421417	      0.00000000	      0.00000000	     45.70956652	    -16.77604199	     74.03354490	     14.58521996	     70.24157209	      0.00000000	      0.00000000
